{
    "accessors" : [
        {
            "bufferView" : 0,
            "componentType" : 5123,
            "count" : 2364,
            "max" : [
                443
            ],
            "min" : [
                0
            ],
            "type" : "SCALAR"
        },
        {
            "bufferView" : 1,
            "componentType" : 5126,
            "count" : 444,
            "max" : [
                1.637438178062439,
                0.8852866888046265,
                0.6801718473434448
            ],
            "min" : [
                -1.4783018827438354,
                -0.47390758991241455,
                -1.1658661365509033
            ],
            "type" : "VEC3"
        },
        {
            "bufferView" : 2,
            "componentType" : 5126,
            "count" : 444,
            "max" : [
                0.9948728680610657,
                0.9985656142234802,
                0.99920654296875
            ],
            "min" : [
                -0.9973143935203552,
                -0.9975280165672302,
                -0.9970701932907104
            ],
            "type" : "VEC3"
        },
        {
            "bufferView" : 3,
            "componentType" : 5126,
            "count" : 444,
            "max" : [
                0.967788577079773,
                0.9954278469085693,
                0.9995560050010681,
                1.0
            ],
            "min" : [
                -0.799484372138977,
                -0.9887018203735352,
                -0.9994742274284363,
                1.0
            ],
            "type" : "VEC4"
        },
        {
            "bufferView" : 4,
            "componentType" : 5126,
            "count" : 444,
            "max" : [
                0.7282480001449585,
                0.9999150000003283
            ],
            "min" : [
                8.499999967170879e-05,
                8.499622344970703e-05
            ],
            "type" : "VEC2"
        }
    ],
    "asset" : {
        "generator" : "Khronos Blender glTF 2.0 exporter",
        "version" : "2.0"
    },
    "bufferViews" : [
        {
            "buffer" : 0,
            "byteLength" : 4728,
            "byteOffset" : 0,
            "target" : 34963
        },
        {
            "buffer" : 0,
            "byteLength" : 5328,
            "byteOffset" : 4728,
            "target" : 34962
        },
        {
            "buffer" : 0,
            "byteLength" : 5328,
            "byteOffset" : 10056,
            "target" : 34962
        },
        {
            "buffer" : 0,
            "byteLength" : 7104,
            "byteOffset" : 15384,
            "target" : 34962
        },
        {
            "buffer" : 0,
            "byteLength" : 3552,
            "byteOffset" : 22488,
            "target" : 34962
        }
    ],
    "buffers" : [
        {
            "byteLength" : 26040,
            "uri" : "red-pipe.bin"
        }
    ],
    "images" : [
        {
            "name" : "pipe2-BLEND-AGI",
            "uri" : "pipe2-BLEND-AGI.png"
        }
    ],
    "materials" : [
        {
            "alphaMode" : "BLEND",
            "name" : "pipe2-BLEND-AGI",
            "pbrMetallicRoughness" : {
                "baseColorTexture" : {
                    "index" : 0
                },
                "metallicFactor" : 0.0
            }
        }
    ],
    "meshes" : [
        {
            "name" : "pipe2-BLEND-AGI",
            "primitives" : [
                {
                    "attributes" : {
                        "NORMAL" : 2,
                        "POSITION" : 1,
                        "TANGENT" : 3,
                        "TEXCOORD_0" : 4
                    },
                    "indices" : 0,
                    "material" : 0
                }
            ]
        }
    ],
    "nodes" : [
        {
            "name" : "Camera",
            "rotation" : [
                0.483536034822464,
                0.33687159419059753,
                -0.20870360732078552,
                0.7804827094078064
            ],
            "translation" : [
                7.481131553649902,
                5.34366512298584,
                6.5076398849487305
            ]
        },
        {
            "name" : "Lamp",
            "rotation" : [
                0.16907575726509094,
                0.7558802962303162,
                -0.27217137813568115,
                0.570947527885437
            ],
            "scale" : [
                1.0,
                1.0,
                0.9999999403953552
            ],
            "translation" : [
                4.076245307922363,
                5.903861999511719,
                -1.0054539442062378
            ]
        },
        {
            "mesh" : 0,
            "name" : "pipe2-BLEND-AGI",
            "rotation" : [
                0.4921344518661499,
                4.200915157572621e-17,
                4.200914495828131e-17,
                0.87051922082901
            ],
            "translation" : [
                0.0752117931842804,
                0.12284588813781738,
                0.005579710006713867
            ]
        }
    ],
    "samplers" : [
        {}
    ],
    "scene" : 0,
    "scenes" : [
        {
            "name" : "Scene",
            "nodes" : [
                2,
                1,
                0
            ]
        }
    ],
    "textures" : [
        {
            "sampler" : 0,
            "source" : 0
        }
    ]
}
